<svg width="673" height="672" viewBox="0 0 673 672" fill="none" xmlns="http://www.w3.org/2000/svg">
<g id="oper">
<path id="backG" fill-rule="evenodd" clip-rule="evenodd" d="M1.73658 0H671.263C671.724 0 672.166 0.18296 672.491 0.508632C672.817 0.834303 673 1.27601 673 1.73658V669.479C673 669.707 672.955 669.932 672.868 670.143C672.78 670.354 672.653 670.545 672.491 670.706C672.33 670.867 672.139 670.995 671.928 671.082C671.717 671.169 671.491 671.214 671.263 671.214H1.73658C1.50859 671.214 1.28281 671.169 1.07213 671.082C0.861445 670.995 0.669995 670.867 0.50872 670.706C0.347445 670.545 0.219506 670.354 0.132217 670.143C0.0449284 669.932 -8.04962e-08 669.707 0 669.479L0 1.73658C0 1.27601 0.18296 0.834303 0.508632 0.508632C0.834303 0.18296 1.27601 0 1.73658 0V0Z" fill="#FFD662"/>
<g id="search" filter="url(#filter0_d)">
<path fill-rule="evenodd" clip-rule="evenodd" d="M103.901 112.418H490.221C490.681 112.418 491.123 112.601 491.448 112.926C491.773 113.252 491.956 113.693 491.956 114.153V154.105C491.956 154.565 491.773 155.006 491.448 155.332C491.123 155.657 490.681 155.84 490.221 155.84H103.901C103.673 155.84 103.447 155.795 103.236 155.708C103.026 155.621 102.834 155.493 102.673 155.332C102.512 155.171 102.384 154.98 102.296 154.769C102.209 154.559 102.164 154.333 102.164 154.105V114.153C102.164 113.925 102.209 113.7 102.296 113.489C102.384 113.278 102.512 113.087 102.673 112.926C102.834 112.765 103.026 112.637 103.236 112.55C103.447 112.463 103.673 112.418 103.901 112.418Z" fill="white"/>
</g>
<g id="card1" filter="url(#filter1_d)">
<path fill-rule="evenodd" clip-rule="evenodd" d="M196.76 168.562H282.969C283.429 168.562 283.871 168.744 284.196 169.07C284.522 169.395 284.704 169.837 284.704 170.297V198.955C284.704 199.415 284.521 199.857 284.196 200.182C283.87 200.507 283.429 200.69 282.969 200.69H196.76C196.3 200.69 195.858 200.508 195.533 200.182C195.207 199.857 195.024 199.416 195.023 198.955V170.304C195.022 170.075 195.067 169.849 195.154 169.637C195.24 169.426 195.368 169.234 195.53 169.072C195.691 168.91 195.883 168.782 196.094 168.694C196.305 168.606 196.531 168.561 196.76 168.562V168.562Z" fill="#94A4D7"/>
</g>
<g id="seat1" filter="url(#filter2_d)">
<path fill-rule="evenodd" clip-rule="evenodd" d="M412.952 373.631H594.116C596.131 373.631 597.761 375.917 597.761 378.734V463.04C597.761 465.859 596.128 468.144 594.116 468.144H412.952C410.938 468.144 409.307 465.856 409.307 463.04V378.734C409.304 375.917 410.938 373.631 412.952 373.631Z" fill="#7F8FC2"/>
</g>
<g id="seat2" filter="url(#filter3_d)">
<path fill-rule="evenodd" clip-rule="evenodd" d="M412.952 478.04H594.116C596.131 478.04 597.761 480.328 597.761 483.143V567.451C597.761 570.269 596.128 572.554 594.116 572.554H412.952C410.938 572.554 409.307 570.266 409.307 567.451V483.147C409.304 480.328 410.938 478.04 412.952 478.04Z" fill="#7F8FC2"/>
</g>
<g id="card2" filter="url(#filter4_d)">
<path fill-rule="evenodd" clip-rule="evenodd" d="M305.955 197.828L391.189 210.766C391.414 210.799 391.631 210.877 391.827 210.994C392.022 211.112 392.192 211.267 392.328 211.45C392.463 211.634 392.561 211.842 392.616 212.063C392.671 212.285 392.681 212.515 392.647 212.74L388.347 241.074C388.278 241.529 388.031 241.938 387.66 242.212C387.289 242.485 386.825 242.6 386.37 242.532L301.138 229.597C300.682 229.528 300.273 229.28 299.999 228.909C299.726 228.538 299.611 228.074 299.68 227.618L303.981 199.286C304.015 199.061 304.093 198.844 304.21 198.649C304.328 198.454 304.483 198.284 304.666 198.148C304.849 198.013 305.058 197.915 305.279 197.86C305.5 197.805 305.73 197.794 305.955 197.828V197.828Z" fill="#94A4D7"/>
</g>
<g id="circlesandT" filter="url(#filter5_d)">
<path id="circles" fill-rule="evenodd" clip-rule="evenodd" d="M47.1543 291.153C47.1543 275.639 59.7317 263.062 75.2472 263.062C90.7626 263.062 103.34 275.639 103.34 291.153C103.34 306.667 90.7626 319.247 75.2472 319.247C59.7317 319.247 47.1543 306.67 47.1543 291.153Z" fill="white"/>
<g id="texts">
<path id="sdsdsd" d="M127.023 277.867H365.51" stroke="white" stroke-width="4.11471" stroke-linecap="round" stroke-linejoin="round"/>
<path id="sdsdsd_2" d="M127.023 304.448H242.906" stroke="white" stroke-width="4.11471" stroke-linecap="round" stroke-linejoin="round"/>
</g>
<path id="circles_2" fill-rule="evenodd" clip-rule="evenodd" d="M47.1543 378.527C47.1543 363.013 59.7317 350.436 75.2472 350.436C90.7626 350.436 103.34 363.013 103.34 378.527C103.34 394.041 90.7626 406.621 75.2472 406.621C59.7317 406.621 47.1543 394.044 47.1543 378.527Z" fill="white"/>
<g id="texts_2">
<path id="sdsdsfg" d="M127.023 365.24H365.51" stroke="white" stroke-width="4.11471" stroke-linecap="round" stroke-linejoin="round"/>
<path id="sdsdsfg_2" d="M127.023 391.816H242.906" stroke="white" stroke-width="4.11471" stroke-linecap="round" stroke-linejoin="round"/>
</g>
<path id="circles_3" fill-rule="evenodd" clip-rule="evenodd" d="M47.1543 465.9C47.1543 450.386 59.7317 437.807 75.2472 437.807C90.7626 437.807 103.34 450.386 103.34 465.9C103.34 481.414 90.7626 493.998 75.2472 493.998C59.7317 493.998 47.1543 481.417 47.1543 465.9Z" fill="white"/>
<g id="texts_3">
<path id="xcxcxc" d="M127.023 452.614H365.51" stroke="white" stroke-width="4.11471" stroke-linecap="round" stroke-linejoin="round"/>
<path id="xcxcxc_2" d="M127.023 479.19H242.906" stroke="white" stroke-width="4.11471" stroke-linecap="round" stroke-linejoin="round"/>
</g>
<path id="circles_4" fill-rule="evenodd" clip-rule="evenodd" d="M47.1543 553.275C47.1543 537.758 59.7317 525.182 75.2472 525.182C90.7626 525.182 103.34 537.758 103.34 553.275C103.34 568.792 90.7626 581.368 75.2472 581.368C59.7317 581.368 47.1543 568.789 47.1543 553.275Z" fill="white"/>
<g id="texts_4">
<path id="vf" d="M127.023 539.986H365.51" stroke="white" stroke-width="4.11471" stroke-linecap="round" stroke-linejoin="round"/>
<path id="vf_2" d="M127.023 566.563H242.906" stroke="white" stroke-width="4.11471" stroke-linecap="round" stroke-linejoin="round"/>
</g>
</g>
<path id="nav" fill-rule="evenodd" clip-rule="evenodd" d="M1.73658 0H671.263C672.223 0 673 0.052491 673 0.116647V44.734C673 44.7981 672.223 44.8506 671.263 44.8506H1.73658C0.777158 44.8506 0 44.7981 0 44.734V0.116647C0 0.052491 0.777158 0 1.73658 0Z" fill="#F3C233"/>
<g id="btnsg" filter="url(#filter6_d)">
<path id="btns" fill-rule="evenodd" clip-rule="evenodd" d="M21.8438 22.4224C21.8438 15.861 27.0812 10.5434 33.5405 10.5434C39.9998 10.5434 45.2372 15.861 45.2372 22.4224C45.2372 28.9838 40.0013 34.3029 33.5361 34.3029C27.071 34.3029 21.8438 28.9838 21.8438 22.4224Z" fill="#FB5E64"/>
<path id="btns_2" fill-rule="evenodd" clip-rule="evenodd" d="M67.2617 22.4224C67.2617 15.861 72.4977 10.5434 78.9585 10.5434C85.4192 10.5434 90.6552 15.861 90.6552 22.4224C90.6552 28.9838 85.4192 34.3029 78.9585 34.3029C72.4977 34.3029 67.2617 28.9838 67.2617 22.4224Z" fill="#FB5E64"/>
<path id="btns_3" fill-rule="evenodd" clip-rule="evenodd" d="M112.68 22.4224C112.68 15.861 117.916 10.5434 124.376 10.5434C130.837 10.5434 136.073 15.861 136.073 22.4224C136.073 28.9838 130.837 34.3029 124.375 34.3029C117.913 34.3029 112.68 28.9838 112.68 22.4224Z" fill="#FB5E64"/>
</g>
<g id="person" filter="url(#filter7_d)">
<g id="newII">
<g id="Layer 1">
<path id="Vector" fill-rule="evenodd" clip-rule="evenodd" d="M503.356 235.99C503.303 231.314 497.338 221.051 495.191 221.426C493.043 221.8 479.176 229.113 474.77 231.422C470.364 233.732 419.373 232.087 413.093 231.905C406.813 231.722 404.295 226.896 396.694 223.028C389.093 219.16 386.181 238.593 386.05 242.022C385.834 247.366 396.306 241.626 399.682 242.553C403.057 243.48 468.56 258.564 472.602 258.7C476.644 258.836 495.631 249.634 497.284 246.922C498.938 244.21 503.41 240.666 503.356 235.99Z" fill="white"/>
<path id="Vector_2" d="M419.307 292.577L442.199 329.517" stroke="#1B3C87" stroke-width="2.60997" stroke-linecap="round" stroke-linejoin="round"/>
<path id="Vector_3" d="M375.762 388.137L396.857 423.434" stroke="#1B3C87" stroke-width="2.60997" stroke-linecap="round" stroke-linejoin="round"/>
<path id="Vector_4" d="M445.572 474.83L486.553 471.434" stroke="#1B3C87" stroke-width="2.60997" stroke-linecap="round" stroke-linejoin="round"/>
<path id="Vector_5" d="M446.75 482.536L487.731 479.139" stroke="#1B3C87" stroke-width="2.60997" stroke-linecap="round" stroke-linejoin="round"/>
<path id="Vector_6" fill-rule="evenodd" clip-rule="evenodd" d="M535.77 320.117C532.135 320.418 465.413 337.244 456.764 340.109C448.114 342.974 387.194 394.114 384.338 396.999C386.195 400.249 397.436 418.771 397.436 418.771L445.539 395.529C445.539 395.529 539.404 319.816 535.77 320.117Z" fill="#3C3744"/>
<path id="Vector_7" d="M411.705 367.928C395.812 380.851 381.107 393.316 379.738 394.698C381.596 397.957 392.844 416.475 392.844 416.475L440.947 393.233C440.947 393.233 534.811 317.519 531.178 317.821C527.544 318.123 460.822 334.946 452.171 337.813C449.432 338.719 441.446 344.472 431.722 351.998" stroke="#1B3C87" stroke-width="2.60997" stroke-linecap="round" stroke-linejoin="round"/>
<path id="Vector_8" fill-rule="evenodd" clip-rule="evenodd" d="M584.152 304.14C611.479 371.77 561.843 391.552 492.137 394.055C491.036 402.512 484.891 474.845 484.891 474.845L455.077 477.29C455.077 477.29 435.015 378.888 439.561 372.12C444.107 365.351 521.049 322.471 527.851 319.514C534.653 316.557 582.978 301.218 584.152 304.14Z" fill="#3C3744"/>
<path id="Vector_9" d="M541.535 383.989C526.225 388.23 507.966 390.353 488.066 391.069C486.965 399.526 480.82 471.858 480.82 471.858L451.006 474.304C451.006 474.304 447.715 458.163 444.102 438.503" stroke="#1B3C87" stroke-width="2.60997" stroke-linecap="round" stroke-linejoin="round"/>
<path id="Vector_10" d="M483.074 338.935C502.255 327.928 520.614 317.904 523.78 316.526C530.583 313.568 578.895 298.231 580.08 301.153C596.291 341.271 585.418 364.551 559.342 377.375" stroke="#1B3C87" stroke-width="2.60997" stroke-linecap="round" stroke-linejoin="round"/>
<path id="Vector_11" d="M440.671 419.192C436.611 395.426 433.37 372.295 435.493 369.134C437.388 366.314 451.87 357.211 468.606 347.345" stroke="#1B3C87" stroke-width="2.60997" stroke-linecap="round" stroke-linejoin="round"/>
<path id="Vector_12" d="M498.078 205.901C501.14 203.703 504.294 201.9 506.551 201.623" stroke="#1B3C87" stroke-width="2.60997" stroke-linecap="round" stroke-linejoin="round"/>
<path id="Vector_13" d="M493.859 231.152C490.988 226.104 486.936 216.793 488.402 214.58C488.762 214.036 489.656 213.063 490.88 211.881" stroke="#1B3C87" stroke-width="2.60997" stroke-linecap="round" stroke-linejoin="round"/>
<path id="Vector_14" fill-rule="evenodd" clip-rule="evenodd" d="M499.409 238.126C497.489 235.967 489.541 219.025 491.264 216.426C492.988 213.826 508.147 201.196 517.218 202.673C514.783 209.927 501.327 240.286 499.409 238.126Z" fill="#46DBC9"/>
<path id="Vector_15" fill-rule="evenodd" clip-rule="evenodd" d="M525.909 193.93C572.204 177.071 588.549 293.911 585.785 305.474C573.944 317.284 527.136 325.479 521.305 321.889C497.687 296.294 479.138 210.961 525.909 193.93Z" fill="#46DBC9"/>
<path id="Vector_16" d="M493.777 256.855C491.607 235.411 494.828 214.078 507.337 201.12" stroke="#1B3C87" stroke-width="2.60997" stroke-linecap="round" stroke-linejoin="round"/>
<path id="Vector_17" d="M576.044 256.586C581.269 278.619 583.043 298.692 581.974 303.145C570.133 314.956 523.326 323.15 517.495 319.56C508.477 309.791 500.198 291.303 496.012 271.239" stroke="#1B3C87" stroke-width="2.60997" stroke-linecap="round" stroke-linejoin="round"/>
<path id="Vector_18" d="M507.328 201.116C511.281 197.019 516.164 193.757 522.099 191.598C546.339 182.77 562.369 210.598 571.743 240.776" stroke="#1B3C87" stroke-width="2.60997" stroke-linecap="round" stroke-linejoin="round"/>
<path id="Vector_19" d="M428.12 229.403C419.02 229.429 411.893 229.374 410.874 229.196C407.979 228.694 395.465 219.205 392.076 219.157" stroke="#1B3C87" stroke-width="2.60997" stroke-linecap="round" stroke-linejoin="round"/>
<path id="Vector_20" d="M488.962 220.3C483.942 222.741 476.076 226.605 472.649 228.695C469.935 228.904 459.827 229.11 448.543 229.247" stroke="#1B3C87" stroke-width="2.60997" stroke-linecap="round" stroke-linejoin="round"/>
<path id="Vector_21" d="M384.299 239.287C388.6 242.464 394.555 238.89 397.93 239.818C401.306 240.745 466.818 255.832 470.855 255.965C474.892 256.097 491.56 248.052 493.209 245.337" stroke="#1B3C87" stroke-width="2.60997" stroke-linecap="round" stroke-linejoin="round"/>
<path id="Vector_22" fill-rule="evenodd" clip-rule="evenodd" d="M517.014 248.603C514.535 253.748 509.06 267.995 507.474 273.167C502.834 275.809 459.875 296.536 447.595 304.885C444.4 305.233 434.417 301.643 431.932 301.881C429.447 302.119 428.939 303.737 428.939 303.737C423.313 304.042 421.122 315.593 428.274 317.881C435.426 320.168 440.084 322.195 445.1 319.314C450.116 316.433 522.83 298.22 528.247 294.526C535.555 289.55 539.712 278.779 543.933 269.895C548.358 260.581 546.336 265.496 546.336 262.032C546.336 258.567 519.496 243.457 517.014 248.603Z" fill="white"/>
<path id="Vector_23" d="M418.912 302.902C421.067 304.789 426.456 306.706 429.994 307.276" stroke="#1B3C87" stroke-width="2.60997" stroke-linecap="round" stroke-linejoin="round"/>
<path id="Vector_24" d="M421.643 308.953C424.104 311.122 431.394 313.454 434.348 312.862" stroke="#1B3C87" stroke-width="2.60997" stroke-linecap="round" stroke-linejoin="round"/>
<path id="Vector_25" d="M516.6 294.871C521 293.452 524.116 292.326 525.189 291.686C530.998 288.211 542.431 265.495 542.774 260.021" stroke="#1B3C87" stroke-width="2.60997" stroke-linecap="round" stroke-linejoin="round"/>
<path id="Vector_26" d="M424.17 314.896C427.255 316.736 435.136 318.833 438.223 318.279C441.31 317.725 444.184 314.998 448.867 313.929C451.537 313.318 474.064 307.307 494.024 301.608" stroke="#1B3C87" stroke-width="2.60997" stroke-linecap="round" stroke-linejoin="round"/>
<path id="Vector_27" d="M513.931 246.391C511.452 251.535 505.979 265.783 504.392 270.955C499.753 273.596 456.792 294.324 444.513 302.673C441.318 303.023 431.335 299.43 428.85 299.671C426.366 299.911 425.855 301.527 425.855 301.527" stroke="#1B3C87" stroke-width="2.60997" stroke-linecap="round" stroke-linejoin="round"/>
<path id="Vector_28" fill-rule="evenodd" clip-rule="evenodd" d="M555.202 201.991C575.693 210.853 558.847 261.806 552.044 266.525C543.36 268.361 514.011 252.618 509.452 247.554C508.506 243.043 530.122 191.148 555.202 201.991Z" fill="#46DBC9"/>
<path id="Vector_29" d="M526.458 256.284C517.71 252.01 509.59 247 507.357 244.529" stroke="#1B3C87" stroke-width="2.60997" stroke-linecap="round" stroke-linejoin="round"/>
<path id="Vector_30" d="M517.385 220.772C525.899 206.718 538.954 192.844 553.108 198.968C573.598 207.829 556.753 258.782 549.95 263.501C547.526 264.015 543.493 263.157 538.84 261.546" stroke="#1B3C87" stroke-width="2.60997" stroke-linecap="round" stroke-linejoin="round"/>
<path id="Vector_31" fill-rule="evenodd" clip-rule="evenodd" d="M483.826 482.622L483.126 497.602L486.159 514.774L431.746 522.04L457.33 499.087L455.315 484.981" fill="white"/>
<path id="Vector_32" d="M454.455 496.329L452.439 482.224" stroke="#1B3C87" stroke-width="2.60997" stroke-linecap="round" stroke-linejoin="round"/>
<path id="Vector_33" d="M480.957 479.859L480.255 494.841L483.278 512.013L428.871 519.284L442.876 506.718" stroke="#1B3C87" stroke-width="2.60997" stroke-linecap="round" stroke-linejoin="round"/>
<path id="Vector_34" fill-rule="evenodd" clip-rule="evenodd" d="M390.204 424.809L380.217 429.329L366.85 443.808L334.197 399.365L366.482 410.96L377.508 403.175" fill="white"/>
<path id="Vector_35" d="M348.631 420.849L330 395.489L362.286 407.082L373.312 399.3" stroke="#1B3C87" stroke-width="2.60997" stroke-linecap="round" stroke-linejoin="round"/>
<path id="Vector_36" d="M386.008 420.931L376.022 425.451L362.654 439.929L355.975 430.84" stroke="#1B3C87" stroke-width="2.60997" stroke-linecap="round" stroke-linejoin="round"/>
<path id="Vector_37" d="M369.367 392.588L390.461 427.886" stroke="#1B3C87" stroke-width="2.60997" stroke-linecap="round" stroke-linejoin="round"/>
<g id="Vector_38">
<path fill-rule="evenodd" clip-rule="evenodd" d="M402.826 230.467C400.7 229.989 395.904 229.992 393.465 229.509C388.973 228.615 385.03 226.252 382.115 226.01C379.201 225.768 378.033 227.558 377.899 228.513C377.349 232.354 388.493 235.949 392.197 236.398" fill="white"/>
<path d="M402.826 230.467C400.7 229.989 395.904 229.992 393.465 229.509C388.973 228.615 385.03 226.252 382.115 226.01C379.201 225.768 378.033 227.558 377.899 228.513C377.349 232.354 388.493 235.949 392.197 236.398" stroke="#1B3C87" stroke-width="2.60997" stroke-linecap="round" stroke-linejoin="round"/>
</g>
<path id="Vector_39" fill-rule="evenodd" clip-rule="evenodd" d="M395.975 279.982C395.975 276.616 396.973 273.325 398.844 270.526C400.715 267.727 403.373 265.545 406.483 264.257C409.594 262.969 413.016 262.632 416.318 263.289C419.62 263.946 422.653 265.567 425.033 267.948C427.413 270.329 429.034 273.362 429.691 276.663C430.348 279.965 430.01 283.388 428.722 286.498C427.434 289.608 425.252 292.266 422.453 294.137C419.654 296.007 416.363 297.005 412.996 297.005C410.761 297.005 408.547 296.565 406.482 295.709C404.417 294.854 402.54 293.6 400.96 292.019C399.379 290.438 398.125 288.562 397.27 286.496C396.415 284.431 395.974 282.218 395.975 279.982V279.982Z" fill="white"/>
<path id="Vector_40" d="M396.573 267.86C398.72 264.795 401.816 262.522 405.384 261.394C408.952 260.266 412.792 260.345 416.31 261.619C419.828 262.893 422.829 265.29 424.847 268.441C426.865 271.592 427.789 275.32 427.476 279.049C427.162 282.777 425.629 286.299 423.112 289.068C420.596 291.837 417.237 293.7 413.556 294.369C409.874 295.037 406.075 294.474 402.745 292.765C399.416 291.057 396.743 288.3 395.139 284.919" stroke="#1B3C87" stroke-width="2.60997" stroke-linecap="round" stroke-linejoin="round"/>
<path id="Vector_41" fill-rule="evenodd" clip-rule="evenodd" d="M518.511 183.149C520.406 186.582 522.885 193.697 523.648 199.359C526.306 199.942 537.756 197.437 540.348 195.104C539.321 190.256 535.814 172.927 536.208 170.142C536.601 167.357 517.038 180.487 518.511 183.149Z" fill="white"/>
<path id="Vector_42" d="M529.925 196.206C533.201 195.377 536.34 194.25 537.555 193.159C536.526 188.314 533.019 170.982 533.413 168.195C533.806 165.409 514.243 178.548 515.716 181.206C517.611 184.638 520.09 191.753 520.853 197.412" stroke="#1B3C87" stroke-width="2.60997" stroke-linecap="round" stroke-linejoin="round"/>
<path id="Vector_43" fill-rule="evenodd" clip-rule="evenodd" d="M493.186 156.437C493.186 139.793 503.204 126.299 515.564 126.299C527.924 126.299 537.943 139.793 537.943 156.437C537.943 173.081 527.924 186.576 515.564 186.576C503.204 186.576 493.186 173.083 493.186 156.437Z" fill="white"/>
<path id="Vector_44" d="M503.605 154.072C503.283 156.761 501.67 160.634 499.789 162.08" stroke="#1B3C87" stroke-width="2.60997" stroke-linecap="round" stroke-linejoin="round"/>
<path id="Vector_45" fill-rule="evenodd" clip-rule="evenodd" d="M509.287 152.107C509.287 150.211 510.143 148.688 511.2 148.688C512.257 148.688 513.113 150.219 513.113 152.107C513.113 153.995 512.257 155.525 511.2 155.525C510.143 155.525 509.287 153.995 509.287 152.107Z" fill="#1B3C87"/>
<path id="Vector_46" d="M510.533 170.006C510.533 168.625 511.605 167.505 512.924 167.505C514.244 167.505 515.316 168.625 515.316 170.006C515.316 171.387 514.246 172.504 512.924 172.504C511.603 172.504 510.533 171.384 510.533 170.006Z" stroke="#1B3C87" stroke-width="2.60997" stroke-linecap="round" stroke-linejoin="round"/>
<path id="Vector_47" d="M491.5 159.403C491.269 157.643 491.153 155.869 491.154 154.094C491.154 137.446 501.174 123.954 513.533 123.954C525.892 123.954 535.913 137.446 535.913 154.094C535.913 170.743 525.893 184.233 513.533 184.233C505.054 184.233 497.676 177.883 493.879 168.52" stroke="#1B3C87" stroke-width="2.60997" stroke-linecap="round" stroke-linejoin="round"/>
<path id="Vector_48" fill-rule="evenodd" clip-rule="evenodd" d="M537.005 161.504C538.505 159.254 543.824 127.849 532.622 123.047C530.387 122.086 529.929 124.632 528.685 127.292C526.867 119.195 516.062 109.16 512.366 109.531C508.67 109.901 505.262 118.588 505.322 121.074C502.97 117.635 496.026 112.507 493.375 112.832C486.309 113.698 490.352 129.871 491.524 132.781C488.646 132.461 483.247 135.173 482.922 139.305C482.39 145.97 488.82 150.691 491.947 151.074C495.075 151.458 500.868 143.921 506.164 142.381C509.417 144.796 510.135 145.602 511.645 145.392C513.154 145.182 517.945 142.816 519.353 143.628C520.762 144.44 524.134 155.6 525.941 156.168C527.748 156.735 535.503 163.757 537.005 161.504Z" fill="#EECB55"/>
<path id="Vector_49" d="M489.427 130.265C486.548 129.941 481.149 132.655 480.824 136.788C480.293 143.452 486.723 148.173 489.851 148.556C492.105 148.833 495.744 144.993 499.585 142.252" stroke="#1B3C87" stroke-width="2.60997" stroke-linecap="round" stroke-linejoin="round"/>
<path id="Vector_50" d="M534.089 123.613C533.149 122.219 531.975 121.15 530.523 120.529C528.288 119.568 527.83 122.114 526.586 124.774C524.768 116.677 513.964 106.644 510.267 107.01C506.571 107.376 503.164 116.066 503.219 118.555C500.867 115.118 493.922 109.989 491.27 110.312C487.141 110.82 486.807 116.556 487.479 121.817" stroke="#1B3C87" stroke-width="2.60997" stroke-linecap="round" stroke-linejoin="round"/>
<path id="Vector_51" d="M504.061 139.863C507.314 142.278 508.032 143.083 509.54 142.876C511.048 142.669 515.842 140.298 517.25 141.11C518.659 141.922 522.03 153.084 523.838 153.649C525.646 154.215 533.404 161.231 534.906 158.987C535.781 157.675 537.952 146.463 537.395 136.387" stroke="#1B3C87" stroke-width="2.60997" stroke-linecap="round" stroke-linejoin="round"/>
<path id="Vector_52" fill-rule="evenodd" clip-rule="evenodd" d="M524.428 161.635C524.428 160.332 524.815 159.058 525.539 157.975C526.263 156.892 527.292 156.047 528.496 155.549C529.7 155.05 531.025 154.92 532.303 155.175C533.581 155.429 534.755 156.057 535.677 156.978C536.598 157.9 537.225 159.074 537.479 160.352C537.734 161.63 537.603 162.955 537.104 164.159C536.605 165.363 535.761 166.392 534.677 167.116C533.594 167.839 532.32 168.226 531.017 168.226C530.151 168.226 529.294 168.055 528.495 167.724C527.695 167.393 526.969 166.907 526.357 166.295C525.745 165.683 525.26 164.957 524.929 164.157C524.598 163.358 524.428 162.501 524.428 161.635Z" fill="white"/>
<path id="Vector_53" d="M524.428 156.019C525.312 155.248 526.386 154.728 527.538 154.511C528.691 154.294 529.881 154.389 530.984 154.786C532.088 155.182 533.066 155.866 533.817 156.767C534.567 157.668 535.064 158.753 535.255 159.911C535.447 161.068 535.326 162.255 534.905 163.35C534.484 164.444 533.778 165.407 532.861 166.137C531.943 166.868 530.848 167.341 529.687 167.506C528.526 167.672 527.341 167.525 526.256 167.08" stroke="#1B3C87" stroke-width="2.60997" stroke-linecap="round" stroke-linejoin="round"/>
</g>
</g>
</g>
</g>
<defs>
<filter id="filter0_d" x="102.164" y="112.418" width="401.792" height="57.4217" filterUnits="userSpaceOnUse" color-interpolation-filters="sRGB">
<feFlood flood-opacity="0" result="BackgroundImageFix"/>
<feColorMatrix in="SourceAlpha" type="matrix" values="0 0 0 0 0 0 0 0 0 0 0 0 0 0 0 0 0 0 127 0" result="hardAlpha"/>
<feOffset dx="6" dy="8"/>
<feGaussianBlur stdDeviation="3"/>
<feComposite in2="hardAlpha" operator="out"/>
<feColorMatrix type="matrix" values="0 0 0 0 0 0 0 0 0 0 0 0 0 0 0 0 0 0 0.25 0"/>
<feBlend mode="normal" in2="BackgroundImageFix" result="effect1_dropShadow"/>
<feBlend mode="normal" in="SourceGraphic" in2="effect1_dropShadow" result="shape"/>
</filter>
<filter id="filter1_d" x="195.023" y="168.562" width="100.681" height="41.1289" filterUnits="userSpaceOnUse" color-interpolation-filters="sRGB">
<feFlood flood-opacity="0" result="BackgroundImageFix"/>
<feColorMatrix in="SourceAlpha" type="matrix" values="0 0 0 0 0 0 0 0 0 0 0 0 0 0 0 0 0 0 127 0" result="hardAlpha"/>
<feOffset dx="7" dy="5"/>
<feGaussianBlur stdDeviation="2"/>
<feComposite in2="hardAlpha" operator="out"/>
<feColorMatrix type="matrix" values="0 0 0 0 0 0 0 0 0 0 0 0 0 0 0 0 0 0 0.25 0"/>
<feBlend mode="normal" in2="BackgroundImageFix" result="effect1_dropShadow"/>
<feBlend mode="normal" in="SourceGraphic" in2="effect1_dropShadow" result="shape"/>
</filter>
<filter id="filter2_d" x="409.307" y="373.631" width="202.454" height="108.513" filterUnits="userSpaceOnUse" color-interpolation-filters="sRGB">
<feFlood flood-opacity="0" result="BackgroundImageFix"/>
<feColorMatrix in="SourceAlpha" type="matrix" values="0 0 0 0 0 0 0 0 0 0 0 0 0 0 0 0 0 0 127 0" result="hardAlpha"/>
<feOffset dx="10" dy="10"/>
<feGaussianBlur stdDeviation="2"/>
<feComposite in2="hardAlpha" operator="out"/>
<feColorMatrix type="matrix" values="0 0 0 0 0 0 0 0 0 0 0 0 0 0 0 0 0 0 0.25 0"/>
<feBlend mode="normal" in2="BackgroundImageFix" result="effect1_dropShadow"/>
<feBlend mode="normal" in="SourceGraphic" in2="effect1_dropShadow" result="shape"/>
</filter>
<filter id="filter3_d" x="409.307" y="478.04" width="202.454" height="108.514" filterUnits="userSpaceOnUse" color-interpolation-filters="sRGB">
<feFlood flood-opacity="0" result="BackgroundImageFix"/>
<feColorMatrix in="SourceAlpha" type="matrix" values="0 0 0 0 0 0 0 0 0 0 0 0 0 0 0 0 0 0 127 0" result="hardAlpha"/>
<feOffset dx="10" dy="10"/>
<feGaussianBlur stdDeviation="2"/>
<feComposite in2="hardAlpha" operator="out"/>
<feColorMatrix type="matrix" values="0 0 0 0 0 0 0 0 0 0 0 0 0 0 0 0 0 0 0.25 0"/>
<feBlend mode="normal" in2="BackgroundImageFix" result="effect1_dropShadow"/>
<feBlend mode="normal" in="SourceGraphic" in2="effect1_dropShadow" result="shape"/>
</filter>
<filter id="filter4_d" x="299.66" y="197.809" width="104.006" height="53.7421" filterUnits="userSpaceOnUse" color-interpolation-filters="sRGB">
<feFlood flood-opacity="0" result="BackgroundImageFix"/>
<feColorMatrix in="SourceAlpha" type="matrix" values="0 0 0 0 0 0 0 0 0 0 0 0 0 0 0 0 0 0 127 0" result="hardAlpha"/>
<feOffset dx="7" dy="5"/>
<feGaussianBlur stdDeviation="2"/>
<feComposite in2="hardAlpha" operator="out"/>
<feColorMatrix type="matrix" values="0 0 0 0 0 0 0 0 0 0 0 0 0 0 0 0 0 0 0.25 0"/>
<feBlend mode="normal" in2="BackgroundImageFix" result="effect1_dropShadow"/>
<feBlend mode="normal" in="SourceGraphic" in2="effect1_dropShadow" result="shape"/>
</filter>
<filter id="filter5_d" x="47.1543" y="263.062" width="334.414" height="329.307" filterUnits="userSpaceOnUse" color-interpolation-filters="sRGB">
<feFlood flood-opacity="0" result="BackgroundImageFix"/>
<feColorMatrix in="SourceAlpha" type="matrix" values="0 0 0 0 0 0 0 0 0 0 0 0 0 0 0 0 0 0 127 0" result="hardAlpha"/>
<feOffset dx="9" dy="6"/>
<feGaussianBlur stdDeviation="2.5"/>
<feComposite in2="hardAlpha" operator="out"/>
<feColorMatrix type="matrix" values="0 0 0 0 0 0 0 0 0 0 0 0 0 0 0 0 0 0 0.25 0"/>
<feBlend mode="normal" in2="BackgroundImageFix" result="effect1_dropShadow"/>
<feBlend mode="normal" in="SourceGraphic" in2="effect1_dropShadow" result="shape"/>
</filter>
<filter id="filter6_d" x="21.8438" y="10.5434" width="124.229" height="31.7595" filterUnits="userSpaceOnUse" color-interpolation-filters="sRGB">
<feFlood flood-opacity="0" result="BackgroundImageFix"/>
<feColorMatrix in="SourceAlpha" type="matrix" values="0 0 0 0 0 0 0 0 0 0 0 0 0 0 0 0 0 0 127 0" result="hardAlpha"/>
<feOffset dx="6" dy="4"/>
<feGaussianBlur stdDeviation="2"/>
<feComposite in2="hardAlpha" operator="out"/>
<feColorMatrix type="matrix" values="0 0 0 0 0 0 0 0 0 0 0 0 0 0 0 0 0 0 0.25 0"/>
<feBlend mode="normal" in2="BackgroundImageFix" result="effect1_dropShadow"/>
<feBlend mode="normal" in="SourceGraphic" in2="effect1_dropShadow" result="shape"/>
</filter>
<filter id="filter7_d" x="328.695" y="103.695" width="277.089" height="426.345" filterUnits="userSpaceOnUse" color-interpolation-filters="sRGB">
<feFlood flood-opacity="0" result="BackgroundImageFix"/>
<feColorMatrix in="SourceAlpha" type="matrix" values="0 0 0 0 0 0 0 0 0 0 0 0 0 0 0 0 0 0 127 0" result="hardAlpha"/>
<feOffset dx="9" dy="3"/>
<feGaussianBlur stdDeviation="2.5"/>
<feComposite in2="hardAlpha" operator="out"/>
<feColorMatrix type="matrix" values="0 0 0 0 0 0 0 0 0 0 0 0 0 0 0 0 0 0 0.25 0"/>
<feBlend mode="normal" in2="BackgroundImageFix" result="effect1_dropShadow"/>
<feBlend mode="normal" in="SourceGraphic" in2="effect1_dropShadow" result="shape"/>
</filter>
</defs>
</svg>
